<?xml version="1.0" encoding="UTF-8" standalone="no"?>
<!-- Created with Inkscape (http://www.inkscape.org/) -->

<svg
   version="1.1"
   id="svg1"
   width="185"
   height="103"
   viewBox="0 0 185 103"
   xmlns="http://www.w3.org/2000/svg"
   xmlns:svg="http://www.w3.org/2000/svg">
  <defs
     id="defs1" />
  <g
     id="g1">
    <path
       style="fill:#000000"
       d="M 63.659748,101.0121 C 34.573665,95.771309 8.5529752,76.778768 2.386322,56.288536 1.2086904,52.375564 1.1959677,51.375461 2.3096531,50.261776 4.2559695,48.315459 6.142884,49.451609 9.3295043,54.48857 15.727725,64.601979 30.057785,73.732336 46.5,78.171646 57.314919,81.091616 83.360427,81.386433 95.691661,78.728461 119.4726,73.60253 139.52212,63.41502 153.97263,49.114889 165.63664,37.57227 172.41395,25.767231 176.00262,10.742038 c 2.12225,-8.8855378 2.29812,-9.2243467 4.37455,-8.4275447 4.06251,1.5589303 2.73067,20.2842047 -2.38649,33.5534497 C 167.64187,62.703295 134.72387,91.02181 104.5,99.0901 c -8.928574,2.38349 -32.200632,3.47871 -40.840252,1.922 z"
       id="path1" />
  </g>
</svg>
