<?xml version="1.0" encoding="UTF-8" standalone="no"?>
<!-- Created with Inkscape (http://www.inkscape.org/) -->

<svg
   version="1.1"
   id="svg1"
   width="168"
   height="231"
   viewBox="0 0 168 231"
   xmlns="http://www.w3.org/2000/svg"
   xmlns:svg="http://www.w3.org/2000/svg">
  <defs
     id="defs1" />
  <g
     id="g1">
    <path
       style="fill:#000000"
       d="M 113,229.3051 C 91.802139,227.03497 69.090688,218.91811 52.577249,207.71057 44.726386,202.38226 32.052097,190.18145 25.921976,182.05108 19.963291,174.14809 11.719299,158.4578 8.377504,148.65975 -10.612154,92.982597 22.994917,28.921748 82.068999,8.191103 105.77252,-0.12708436 134.68288,0.17475595 158.23386,8.9863068 c 6.45973,2.4168982 7.84557,4.7173342 5.23865,8.6959932 -1.62647,2.482313 -1.96311,2.559302 -8.52425,1.949509 -8.4012,-0.780809 -23.02622,1.840425 -37.48905,6.719137 C 87.00118,36.625288 65.990684,54.09407 54.049664,79.071624 47.386913,93.008391 45.691574,101.02258 45.603133,119 c -0.08544,17.36743 1.62553,26.27055 7.914056,41.18122 12.95957,30.72833 43.648474,54.54172 75.224281,58.37111 7.6259,0.92484 9.25853,1.88167 9.25853,5.42615 0,4.68484 -3.01759,6.04831 -12.97251,5.86148 -4.69012,-0.088 -10.10249,-0.3287 -12.02749,-0.53486 z"
       id="path1" />
  </g>
</svg>
