<?xml version="1.0" encoding="UTF-8" standalone="no"?>
<!-- Created with Inkscape (http://www.inkscape.org/) -->

<svg
   version="1.1"
   id="svg1"
   width="346"
   height="171"
   viewBox="0 0 346 171"
   xmlns="http://www.w3.org/2000/svg"
   xmlns:svg="http://www.w3.org/2000/svg">
  <defs
     id="defs1" />
  <g
     id="g1">
    <path
       style="fill:#000000"
       d="m 2.0235159,169.86047 c -0.095199,-2.589 3.5987584,-18.58435 5.9618875,-25.8158 C 17.605237,114.60684 40.927917,83.944876 68.91462,63.941977 96.982095,43.881347 133.1742,30.182507 169.39135,25.911183 c 14.39957,-1.698234 45.5865,-0.636882 57.10865,1.943519 19.50756,4.368744 33.25465,10.056942 49.72345,20.5743 10.74787,6.863836 13.2739,7.257583 8.4747,1.320998 C 274.05737,36.587422 269.27254,21.005171 271.43778,6.5663125 l 0.70733,-4.7167887 26.56314,37.3252382 c 32.19883,45.244228 38.64862,54.640966 42.03121,61.235558 2.55065,4.97266 2.63139,5.73245 3.51197,33.04726 1.03085,31.97593 1.39064,30.54774 -7.69256,30.53574 l -5.05887,-0.007 -8.69459,-13.74331 C 318.02339,142.68449 313.44381,135.6 312.62856,134.5 c -0.87775,-1.18435 0.10588,3.70957 2.41188,12 2.14177,7.7 3.90885,14.7875 3.92684,15.75 0.0275,1.47125 -0.90046,1.75 -5.8257,1.75 h -5.85842 l -3.62771,-5.25 c -1.99523,-2.8875 -4.40166,-6.375 -5.3476,-7.75 -7.57421,-11.00965 -20.4228,-28.79102 -29.12089,-40.30085 L 258.75753,96.898295 249.69057,92.344594 C 233.3423,84.134 215.27583,78.240085 196,74.828848 183.71376,72.654557 150.20865,73.177098 134.96989,75.780667 86.6234,84.040749 51.983407,100.99243 28.67287,127.79895 21.016071,136.60407 14.964645,145.78651 7.8560892,159.38633 4.6611076,165.49885 2.0364496,170.21221 2.0235159,169.86047 Z M 330.00877,114.77254 c -2.35372,-6.7499 -4.6298,-12.66126 -5.05795,-13.13636 -1.45524,-1.61481 -2.22453,10.00443 -0.92341,13.94688 1.2115,3.67088 8.78014,12.94273 9.76293,11.95993 0.27385,-0.27385 -1.42785,-6.02055 -3.78157,-12.77045 z"
       id="path1" />
  </g>
</svg>
